<svg width="48" height="48" viewBox="0 0 48 49" fill="none" xmlns="http://www.w3.org/2000/svg">
<rect x="0.5" y="1" width="47" height="47" rx="23.5" stroke="#58564E"/>
<path d="M29 15.5C27.0312 15.5 25.3194 16.3878 24.3125 17.8756C23.3056 16.3878 21.5938 15.5 19.625 15.5C18.1337 15.5017 16.704 16.0949 15.6494 17.1494C14.5949 18.204 14.0017 19.6337 14 21.125C14 23.8625 15.7062 26.7116 19.0719 29.5916C20.6141 30.9057 22.28 32.0674 24.0463 33.0603C24.1281 33.1043 24.2196 33.1273 24.3125 33.1273C24.4054 33.1273 24.4969 33.1043 24.5787 33.0603C26.345 32.0674 28.0109 30.9057 29.5531 29.5916C32.9187 26.7116 34.625 23.8625 34.625 21.125C34.6233 19.6337 34.0301 18.204 32.9756 17.1494C31.921 16.0949 30.4913 15.5017 29 15.5ZM24.3125 31.9166C22.7741 31.0288 15.125 26.3488 15.125 21.125C15.1262 19.9319 15.6007 18.788 16.4444 17.9444C17.288 17.1007 18.4319 16.6262 19.625 16.625C21.5262 16.625 23.1228 17.6403 23.7922 19.2753C23.8346 19.3785 23.9067 19.4667 23.9993 19.5288C24.092 19.5909 24.201 19.6241 24.3125 19.6241C24.424 19.6241 24.533 19.5909 24.6257 19.5288C24.7183 19.4667 24.7904 19.3785 24.8328 19.2753C25.5022 17.6403 27.0988 16.625 29 16.625C30.1931 16.6262 31.337 17.1007 32.1806 17.9444C33.0243 18.788 33.4988 19.9319 33.5 21.125C33.5 26.3488 25.8509 31.0288 24.3125 31.9166Z" fill="#58564E"/>
</svg>
