<svg width="48" height="48" viewBox="0 0 48 49" fill="none" xmlns="http://www.w3.org/2000/svg">
<rect x="0.5" y="1" width="47" height="47" rx="23.5" stroke="#58564E"/>
<path d="M33.0337 34.3332C33.5512 34.8478 34.3498 34.0535 33.8324 33.5501L29.6139 29.3441C31.0937 27.716 31.9116 25.5988 31.9088 23.4042C31.9088 18.4935 27.8928 14.5 22.9544 14.5C18.016 14.5 14 18.4935 14 23.4042C14 28.315 18.016 32.3085 22.9544 32.3085C25.1817 32.3085 27.2403 31.4919 28.8152 30.1383L33.0337 34.3332ZM15.1238 23.4042C15.1238 19.1087 18.6448 15.6186 22.9533 15.6186C27.273 15.6186 30.7827 19.1087 30.7827 23.4042C30.7827 27.6998 27.273 31.1899 22.9533 31.1899C18.6448 31.1899 15.1238 27.6998 15.1238 23.4042Z" fill="#58564E"/>
</svg>
