<svg width="48" height="48" viewBox="0 0 48 49" fill="none" xmlns="http://www.w3.org/2000/svg">
<rect x="0.5" y="1" width="47" height="47" rx="23.5" stroke="#58564E"/>
<path d="M31.8125 20H27.875V19.8125C27.875 18.6688 27.4206 17.5719 26.6119 16.7631C25.8031 15.9544 24.7062 15.5 23.5625 15.5C22.4188 15.5 21.3219 15.9544 20.5131 16.7631C19.7044 17.5719 19.25 18.6688 19.25 19.8125V20H15.3125C14.9644 20 14.6306 20.1383 14.3844 20.3844C14.1383 20.6306 14 20.9644 14 21.3125V32.5625C14 32.9106 14.1383 33.2444 14.3844 33.4906C14.6306 33.7367 14.9644 33.875 15.3125 33.875H31.8125C32.1606 33.875 32.4944 33.7367 32.7406 33.4906C32.9867 33.2444 33.125 32.9106 33.125 32.5625V21.3125C33.125 20.9644 32.9867 20.6306 32.7406 20.3844C32.4944 20.1383 32.1606 20 31.8125 20ZM20.375 19.8125C20.375 18.9671 20.7108 18.1564 21.3086 17.5586C21.9064 16.9608 22.7171 16.625 23.5625 16.625C24.4079 16.625 25.2186 16.9608 25.8164 17.5586C26.4142 18.1564 26.75 18.9671 26.75 19.8125V20H20.375V19.8125ZM32 32.5625C32 32.6122 31.9802 32.6599 31.9451 32.6951C31.9099 32.7302 31.8622 32.75 31.8125 32.75H15.3125C15.2628 32.75 15.2151 32.7302 15.1799 32.6951C15.1448 32.6599 15.125 32.6122 15.125 32.5625V21.3125C15.125 21.2628 15.1448 21.2151 15.1799 21.1799C15.2151 21.1448 15.2628 21.125 15.3125 21.125H19.25V22.8125C19.25 22.9617 19.3093 23.1048 19.4148 23.2102C19.5202 23.3157 19.6633 23.375 19.8125 23.375C19.9617 23.375 20.1048 23.3157 20.2102 23.2102C20.3157 23.1048 20.375 22.9617 20.375 22.8125V21.125H26.75V22.8125C26.75 22.9617 26.8093 23.1048 26.9148 23.2102C27.0202 23.3157 27.1633 23.375 27.3125 23.375C27.4617 23.375 27.6048 23.3157 27.7102 23.2102C27.8157 23.1048 27.875 22.9617 27.875 22.8125V21.125H31.8125C31.8622 21.125 31.9099 21.1448 31.9451 21.1799C31.9802 21.2151 32 21.2628 32 21.3125V32.5625Z" fill="#58564E"/>
</svg>
