<svg width="48" height="48" viewBox="0 0 48 49" fill="none" xmlns="http://www.w3.org/2000/svg">
<rect x="0.5" y="1" width="47" height="47" rx="23.5" stroke="#58564E"/>
<path d="M33.0609 33.0332C31.5787 30.4719 29.2519 28.6748 26.5481 27.9126C27.8626 27.2444 28.9138 26.1529 29.5321 24.8142C30.1504 23.4755 30.2998 21.9676 29.9563 20.5335C29.6127 19.0995 28.7962 17.823 27.6384 16.9098C26.4806 15.9966 25.049 15.5 23.5744 15.5C22.0998 15.5 20.6681 15.9966 19.5103 16.9098C18.3525 17.823 17.536 19.0995 17.1925 20.5335C16.8489 21.9676 16.9983 23.4755 17.6166 24.8142C18.2349 26.1529 19.2861 27.2444 20.6006 27.9126C17.8969 28.6738 15.57 30.471 14.0878 33.0332C14.0471 33.0972 14.0198 33.1688 14.0075 33.2437C13.9951 33.3185 13.9981 33.3951 14.0162 33.4688C14.0342 33.5425 14.067 33.6117 14.1125 33.6724C14.158 33.7331 14.2153 33.784 14.281 33.8219C14.3467 33.8599 14.4194 33.8842 14.4947 33.8934C14.57 33.9025 14.6464 33.8963 14.7192 33.8752C14.7921 33.854 14.8599 33.8184 14.9186 33.7704C14.9774 33.7223 15.0258 33.6629 15.0609 33.5957C16.8619 30.4841 20.0437 28.6269 23.5744 28.6269C27.105 28.6269 30.2869 30.4841 32.0878 33.5957C32.123 33.6629 32.1714 33.7223 32.2301 33.7704C32.2888 33.8184 32.3566 33.854 32.4295 33.8752C32.5024 33.8963 32.5787 33.9025 32.654 33.8934C32.7294 33.8842 32.802 33.8599 32.8677 33.8219C32.9334 33.784 32.9907 33.7331 33.0362 33.6724C33.0818 33.6117 33.1145 33.5425 33.1326 33.4688C33.1506 33.3951 33.1536 33.3185 33.1413 33.2437C33.129 33.1688 33.1016 33.0972 33.0609 33.0332ZM18.1369 22.0644C18.1369 20.989 18.4558 19.9377 19.0532 19.0435C19.6507 18.1493 20.4999 17.4524 21.4935 17.0408C22.4871 16.6293 23.5804 16.5216 24.6352 16.7314C25.6899 16.9412 26.6588 17.4591 27.4193 18.2195C28.1797 18.98 28.6976 19.9489 28.9074 21.0036C29.1172 22.0584 29.0095 23.1517 28.598 24.1453C28.1864 25.1389 27.4895 25.9881 26.5953 26.5856C25.7011 27.183 24.6498 27.5019 23.5744 27.5019C22.1328 27.5002 20.7507 26.9268 19.7314 25.9074C18.712 24.8881 18.1386 23.506 18.1369 22.0644Z" fill="#58564E"/>
</svg>
