<!-- <svg class="icon icon-facebook" viewBox="0 0 20 20"><path fill="currentColor" d="M18 10.049C18 5.603 14.419 2 10 2s-8 3.603-8 8.049C2 14.067 4.925 17.396 8.75 18v-5.624H6.719v-2.328h2.03V8.275c0-2.017 1.195-3.132 3.023-3.132.874 0 1.79.158 1.79.158v1.98h-1.009c-.994 0-1.303.621-1.303 1.258v1.51h2.219l-.355 2.326H11.25V18c3.825-.604 6.75-3.933 6.75-7.951"/></svg> -->
<svg width="48" height="49" viewBox="0 0 48 49" fill="none" xmlns="http://www.w3.org/2000/svg">
<rect x="0.5" y="1.12988" width="47" height="47" rx="23.5" stroke="#DCCECB"/>
<path d="M21.6646 32.9166H24.998V26.2416H28.0013L28.3313 22.9249H24.998V21.2499C24.998 21.0289 25.0858 20.8169 25.242 20.6607C25.3983 20.5044 25.6103 20.4166 25.8313 20.4166H28.3313V17.0833H25.8313C24.7262 17.0833 23.6664 17.5222 22.885 18.3036C22.1036 19.085 21.6646 20.1448 21.6646 21.2499V22.9249H19.998L19.668 26.2416H21.6646V32.9166Z" fill="#DCCECB"/>
</svg>
