<!-- <svg class="icon icon-instagram" viewBox="0 0 20 20"><path fill="currentColor" fill-rule="evenodd" d="M13.23 3.492c-.84-.037-1.096-.046-3.23-.046-2.144 0-2.39.01-3.238.055-.776.027-1.195.164-1.487.273a2.4 2.4 0 0 0-.912.593 2.5 2.5 0 0 0-.602.922c-.11.282-.238.702-.274 1.486-.046.84-.046 1.095-.046 3.23s.01 2.39.046 3.229c.004.51.097 1.016.274 1.495.145.365.319.639.602.913.282.282.538.456.92.602.474.176.974.268 1.479.273.848.046 1.103.046 3.238.046s2.39-.01 3.23-.046c.784-.036 1.203-.164 1.486-.273.374-.146.648-.329.921-.602.283-.283.447-.548.602-.922.177-.476.27-.979.274-1.486.037-.84.046-1.095.046-3.23s-.01-2.39-.055-3.229c-.027-.784-.164-1.204-.274-1.495a2.4 2.4 0 0 0-.593-.913 2.6 2.6 0 0 0-.92-.602c-.284-.11-.703-.237-1.488-.273ZM6.697 2.05c.857-.036 1.131-.045 3.302-.045a63 63 0 0 1 3.302.045c.664.014 1.321.14 1.943.374a4 4 0 0 1 1.414.922c.41.397.728.88.93 1.414.23.622.354 1.279.365 1.942C18 7.56 18 7.824 18 10.005c0 2.17-.01 2.444-.046 3.292-.036.858-.173 1.442-.374 1.943-.2.53-.474.976-.92 1.423a3.9 3.9 0 0 1-1.415.922c-.51.191-1.095.337-1.943.374-.857.036-1.122.045-3.302.045-2.171 0-2.445-.009-3.302-.055-.849-.027-1.432-.164-1.943-.364a4.15 4.15 0 0 1-1.414-.922 4.1 4.1 0 0 1-.93-1.423c-.183-.51-.329-1.085-.365-1.943C2.009 12.45 2 12.167 2 10.004c0-2.161 0-2.435.055-3.302.027-.848.164-1.432.365-1.942a4.4 4.4 0 0 1 .92-1.414 4.2 4.2 0 0 1 1.415-.93c.51-.183 1.094-.33 1.943-.366Zm.427 4.806a4.105 4.105 0 1 1 5.805 5.805 4.105 4.105 0 0 1-5.805-5.805m1.882 5.371a2.668 2.668 0 1 0 2.042-4.93 2.668 2.668 0 0 0-2.042 4.93m5.922-5.942a.958.958 0 1 1-1.355-1.355.958.958 0 0 1 1.355 1.355" clip-rule="evenodd"/></svg> -->
<svg width="48" height="49" viewBox="0 0 48 49" fill="none" xmlns="http://www.w3.org/2000/svg">
<rect x="0.5" y="1.12988" width="47" height="47" rx="23.5" stroke="#DCCECB"/>
<path d="M24.8565 16.6667C25.794 16.6692 26.2698 16.6742 26.6807 16.6859L26.8423 16.6917C27.029 16.6984 27.2132 16.7067 27.4357 16.7167C28.3223 16.7584 28.9273 16.8984 29.4582 17.1042C30.0082 17.3159 30.4715 17.6026 30.9348 18.0651C31.3587 18.4815 31.6866 18.9855 31.8957 19.5417C32.1015 20.0726 32.2415 20.6776 32.2832 21.5651C32.2932 21.7867 32.3015 21.9709 32.3082 22.1584L32.3132 22.3201C32.3257 22.7301 32.3307 23.2059 32.3323 24.1434L32.3332 24.7651V25.8567C32.3352 26.4646 32.3288 27.0724 32.314 27.6801L32.309 27.8417C32.3023 28.0292 32.294 28.2134 32.284 28.4351C32.2423 29.3226 32.1007 29.9267 31.8957 30.4584C31.6866 31.0147 31.3587 31.5186 30.9348 31.9351C30.5184 32.359 30.0144 32.6869 29.4582 32.8959C28.9273 33.1017 28.3223 33.2417 27.4357 33.2834L26.8423 33.3084L26.6807 33.3134C26.2698 33.3251 25.794 33.3309 24.8565 33.3326L24.2348 33.3334H23.144C22.5359 33.3356 21.9278 33.3292 21.3198 33.3142L21.1582 33.3092C20.9603 33.3018 20.7626 33.2931 20.5648 33.2834C19.6782 33.2417 19.0732 33.1017 18.5415 32.8959C17.9855 32.6868 17.4819 32.3589 17.0657 31.9351C16.6414 31.5187 16.3132 31.0148 16.104 30.4584C15.8982 29.9276 15.7582 29.3226 15.7165 28.4351L15.6915 27.8417L15.6873 27.6801C15.672 27.0724 15.665 26.4646 15.6665 25.8567V24.1434C15.6642 23.5356 15.6703 22.9277 15.6848 22.3201L15.6907 22.1584C15.6973 21.9709 15.7057 21.7867 15.7157 21.5651C15.7573 20.6776 15.8973 20.0734 16.1032 19.5417C16.3129 18.9852 16.6417 18.4813 17.0665 18.0651C17.4825 17.6414 17.9858 17.3135 18.5415 17.1042C19.0732 16.8984 19.6773 16.7584 20.5648 16.7167C20.7865 16.7067 20.9715 16.6984 21.1582 16.6917L21.3198 16.6867C21.9275 16.6719 22.5353 16.6656 23.1432 16.6676L24.8565 16.6667ZM23.9998 20.8334C22.8948 20.8334 21.8349 21.2724 21.0535 22.0538C20.2721 22.8352 19.8332 23.895 19.8332 25.0001C19.8332 26.1052 20.2721 27.165 21.0535 27.9464C21.8349 28.7278 22.8948 29.1667 23.9998 29.1667C25.1049 29.1667 26.1647 28.7278 26.9461 27.9464C27.7275 27.165 28.1665 26.1052 28.1665 25.0001C28.1665 23.895 27.7275 22.8352 26.9461 22.0538C26.1647 21.2724 25.1049 20.8334 23.9998 20.8334ZM23.9998 22.5001C24.3281 22.5 24.6532 22.5646 24.9566 22.6902C25.2599 22.8158 25.5355 22.9999 25.7677 23.232C25.9999 23.4641 26.1841 23.7397 26.3098 24.043C26.4355 24.3463 26.5002 24.6714 26.5002 24.9997C26.5003 25.328 26.4357 25.6531 26.3101 25.9564C26.1845 26.2597 26.0004 26.5354 25.7683 26.7676C25.5362 26.9997 25.2606 27.1839 24.9573 27.3096C24.654 27.4353 24.329 27.5 24.0007 27.5001C23.3376 27.5001 22.7017 27.2367 22.2329 26.7678C21.764 26.299 21.5007 25.6631 21.5007 25.0001C21.5007 24.337 21.764 23.7012 22.2329 23.2323C22.7017 22.7635 23.3376 22.5001 24.0007 22.5001M28.3757 19.5834C28.0994 19.5834 27.8344 19.6932 27.6391 19.8885C27.4437 20.0839 27.334 20.3488 27.334 20.6251C27.334 20.9013 27.4437 21.1663 27.6391 21.3617C27.8344 21.557 28.0994 21.6667 28.3757 21.6667C28.6519 21.6667 28.9169 21.557 29.1122 21.3617C29.3076 21.1663 29.4173 20.9013 29.4173 20.6251C29.4173 20.3488 29.3076 20.0839 29.1122 19.8885C28.9169 19.6932 28.6519 19.5834 28.3757 19.5834Z" fill="#DCCECB"/>
</svg>
