<svg class="icon icon-share" viewBox="0 0 14 15" fill="none" xmlns="http://www.w3.org/2000/svg">
<g clip-path="url(#clip0_55_650)">
<path d="M9.32812 1.10384C9.70609 0.885731 10.1377 0.777992 10.5738 0.792859C11.0099 0.807725 11.4332 0.944602 11.7954 1.18794C12.1577 1.43128 12.4444 1.77133 12.6231 2.16946C12.8018 2.5676 12.8652 3.00786 12.8062 3.44025C12.7472 3.87264 12.5682 4.27981 12.2894 4.61554C12.0106 4.95126 11.6432 5.20207 11.229 5.33948C10.8148 5.47689 10.3704 5.49539 9.94622 5.39289C9.52204 5.29038 9.1351 5.07097 8.82936 4.75959L5.16603 6.87475C5.27963 7.2839 5.27963 7.71627 5.16603 8.12542L8.82936 10.2406C9.2277 9.83664 9.7595 9.59156 10.3254 9.55116C10.8912 9.51076 11.4525 9.6778 11.9042 10.0211C12.3558 10.3643 12.6671 10.8603 12.7797 11.4163C12.8923 11.9724 12.7986 12.5504 12.516 13.0423C12.2326 13.5351 11.7789 13.9075 11.2404 14.0895C10.7018 14.2715 10.1153 14.2506 9.59098 14.0307C9.06671 13.8108 8.64076 13.4071 8.39311 12.8954C8.14546 12.3836 8.09316 11.7991 8.24603 11.2515L4.5827 9.13575C4.25793 9.46648 3.84205 9.69305 3.38806 9.78657C2.93406 9.8801 2.4625 9.83636 2.03346 9.66092C1.60441 9.48549 1.2373 9.1863 0.978906 8.80147C0.720509 8.41665 0.58252 7.96362 0.58252 7.50009C0.58252 7.03656 0.720509 6.58352 0.978906 6.1987C1.2373 5.81388 1.60441 5.51469 2.03346 5.33925C2.4625 5.16382 2.93406 5.12008 3.38806 5.2136C3.84205 5.30713 4.25793 5.53369 4.5827 5.86442L8.24603 3.74925C8.10779 3.25074 8.13905 2.72042 8.33491 2.24159C8.53077 1.76277 8.88013 1.36256 9.32812 1.10384ZM11.5051 2.54175C11.4291 2.408 11.3273 2.29061 11.2057 2.19634C11.0841 2.10207 10.9451 2.03279 10.7966 1.99248C10.6481 1.95216 10.4931 1.94162 10.3405 1.96145C10.188 1.98128 10.0408 2.0311 9.90757 2.10803C9.77432 2.18496 9.65761 2.28749 9.56415 2.40971C9.47069 2.53193 9.40233 2.67143 9.363 2.82018C9.32367 2.96893 9.31416 3.12399 9.335 3.27643C9.35584 3.42888 9.40664 3.57569 9.48445 3.70842C9.64026 3.9742 9.89487 4.16755 10.1927 4.2463C10.4906 4.32504 10.8075 4.28278 11.0743 4.12874C11.3411 3.9747 11.5361 3.72138 11.6168 3.42406C11.6975 3.12675 11.6574 2.80957 11.5051 2.54175ZM1.79145 7.8075C1.83873 7.97954 1.92481 8.13846 2.04307 8.27205C2.16132 8.40565 2.30862 8.51037 2.47365 8.57818C2.63867 8.64599 2.81704 8.67509 2.99507 8.66325C3.17309 8.6514 3.34603 8.59892 3.50061 8.50984C3.68934 8.40075 3.84373 8.24098 3.94629 8.04862C4.04884 7.85627 4.09545 7.63903 4.08083 7.42153C4.06622 7.20404 3.99096 6.99499 3.8636 6.81809C3.73623 6.64118 3.56185 6.5035 3.36022 6.42065C3.1586 6.33779 2.93779 6.31309 2.72284 6.34933C2.50789 6.38556 2.30739 6.4813 2.14407 6.62568C1.98076 6.77006 1.86116 6.9573 1.79883 7.16619C1.7365 7.37507 1.73395 7.59724 1.79145 7.8075ZM11.0781 10.8653C10.9454 10.7875 10.7986 10.7367 10.6461 10.7159C10.4937 10.695 10.3386 10.7046 10.1899 10.7439C10.0411 10.7832 9.90163 10.8516 9.77941 10.945C9.65718 11.0385 9.55466 11.1552 9.47772 11.2885C9.40079 11.4217 9.35098 11.5688 9.33115 11.7214C9.31131 11.874 9.32186 12.029 9.36217 12.1775C9.40248 12.326 9.47177 12.465 9.56604 12.5866C9.66031 12.7082 9.77769 12.81 9.91145 12.886C10.1793 13.0383 10.4964 13.0784 10.7938 12.9977C11.0911 12.917 11.3444 12.722 11.4984 12.4551C11.6525 12.1883 11.6947 11.8714 11.616 11.5736C11.5372 11.2758 11.3439 11.0211 11.0781 10.8653Z" fill="currentColor"/>
</g>
<defs>
<clipPath id="clip0_55_650">
<rect width="14" height="14" fill="white" transform="translate(0 0.5)"/>
</clipPath>
</defs>
</svg>