<svg width="20" height="20" viewBox="0 0 20 20" fill="none" xmlns="http://www.w3.org/2000/svg">
<path fill-rule="evenodd" clip-rule="evenodd" d="M14.8842 2.63577L15.0175 2.68077L16.0192 3.0141C16.405 3.14327 16.7442 3.25577 17.0117 3.38077C17.3017 3.51577 17.5675 3.6891 17.7708 3.9716C17.9742 4.2541 18.055 4.56077 18.0917 4.87827C18.125 5.17243 18.125 5.5291 18.125 5.9366V12.7799C18.125 13.3616 18.125 13.8524 18.08 14.2408C18.0333 14.6441 17.9283 15.0424 17.6342 15.3641C17.46 15.5548 17.2484 15.7074 17.0125 15.8124C16.6142 15.9891 16.2033 15.9624 15.8058 15.8799C15.4225 15.7999 14.9575 15.6449 14.4058 15.4608L14.37 15.4491C13.4367 15.1374 13.1158 15.0408 12.8058 15.0516C12.682 15.0561 12.559 15.0725 12.4383 15.1008C12.1358 15.1716 11.8525 15.3499 11.0333 15.8958L9.88167 16.6641L9.765 16.7416C8.88 17.3324 8.265 17.7424 7.545 17.8391C6.82583 17.9358 6.12417 17.7016 5.11583 17.3641L4.9825 17.3199L3.98083 16.9866C3.595 16.8574 3.25583 16.7449 2.98833 16.6199C2.69833 16.4849 2.4325 16.3116 2.22917 16.0283C2.02583 15.7466 1.945 15.4399 1.90833 15.1216C1.875 14.8274 1.875 14.4716 1.875 14.0641V7.22077C1.875 6.63827 1.875 6.14744 1.92 5.75994C1.96667 5.3566 2.07167 4.95827 2.36583 4.6366C2.53997 4.44595 2.75162 4.29331 2.9875 4.18827C3.38583 4.01077 3.7975 4.03743 4.19417 4.12077C4.5775 4.19993 5.0425 4.35577 5.59417 4.53993L5.63 4.5516C6.56333 4.86243 6.88417 4.95993 7.195 4.9491C7.31852 4.94457 7.44132 4.92811 7.56167 4.89994C7.86417 4.82827 8.1475 4.64993 8.96667 4.10493L10.1183 3.3366L10.235 3.25827C11.12 2.66827 11.735 2.25827 12.4542 2.1616C13.1742 2.06493 13.8758 2.29827 14.8842 2.63577ZM13.125 3.42243V13.8166C13.5717 13.8649 14.0417 14.0216 14.6608 14.2283L14.765 14.2633C15.3625 14.4624 15.7583 14.5933 16.0608 14.6566C16.3575 14.7183 16.4583 14.6899 16.5042 14.6699C16.5829 14.635 16.6535 14.5843 16.7117 14.5208C16.745 14.4841 16.8033 14.3966 16.8383 14.0958C16.8742 13.7891 16.875 13.3716 16.875 12.7424V5.9691C16.875 5.5191 16.8742 5.23577 16.85 5.02077C16.8267 4.8216 16.79 4.74743 16.7567 4.70243C16.7242 4.65743 16.6658 4.59827 16.485 4.5141C16.2883 4.42243 16.0183 4.33243 15.5933 4.18993L14.6225 3.8666C13.8833 3.61993 13.445 3.48077 13.125 3.42243ZM11.875 13.9666V3.69493C11.6158 3.84493 11.2833 4.06243 10.8117 4.3766L9.66 5.14493L9.56833 5.20577C8.995 5.5891 8.5675 5.8741 8.125 6.0341V16.3058C8.38417 16.1558 8.71667 15.9374 9.18833 15.6233L10.34 14.8558L10.4317 14.7949C11.005 14.4116 11.4325 14.1266 11.875 13.9666ZM6.875 16.5791V6.18327C6.42833 6.13494 5.95833 5.97827 5.33917 5.7716L5.235 5.7366C4.6375 5.53744 4.24167 5.4066 3.93833 5.34327C3.6425 5.2816 3.54167 5.3091 3.49667 5.3291C3.41759 5.36415 3.34665 5.41522 3.28833 5.4791C3.255 5.51494 3.19667 5.60244 3.16167 5.90327C3.12583 6.20994 3.125 6.62827 3.125 7.25743V14.0308C3.125 14.4808 3.12583 14.7641 3.15 14.9791C3.17333 15.1783 3.21 15.2516 3.24333 15.2974C3.27583 15.3424 3.33417 15.4016 3.515 15.4858C3.71167 15.5774 3.98167 15.6674 4.40667 15.8099L5.3775 16.1333C6.11667 16.3791 6.55417 16.5191 6.875 16.5783" fill="#E6D565"/>
</svg>
