<svg width="11" height="11" viewBox="0 0 11 11" fill="none" xmlns="http://www.w3.org/2000/svg">
<path d="M8.83333 3.00085L1.4375 10.4175C1.27083 10.5842 1.07278 10.6675 0.843333 10.6675C0.613889 10.6675 0.416111 10.5842 0.25 10.4175C0.0833331 10.2508 0 10.0528 0 9.82335C0 9.5939 0.0833331 9.39612 0.25 9.23001L7.66667 1.83418H1.33333C1.09722 1.83418 0.899167 1.75418 0.739167 1.59418C0.579167 1.43418 0.499444 1.2364 0.5 1.00085C0.5 0.764736 0.58 0.566681 0.74 0.406681C0.9 0.246681 1.09778 0.166958 1.33333 0.167514H9.66667C9.90278 0.167514 10.1008 0.247514 10.2608 0.407514C10.4208 0.567514 10.5006 0.765292 10.5 1.00085V9.33418C10.5 9.57029 10.42 9.76834 10.26 9.92835C10.1 10.0883 9.90222 10.1681 9.66667 10.1675C9.43056 10.1675 9.2325 10.0875 9.0725 9.92751C8.9125 9.76751 8.83278 9.56973 8.83333 9.33418V3.00085Z" fill="white"/>
</svg>
